<mxfile host="app.diagrams.net" modified="2020-10-10T01:47:23.365Z" agent="5.0 (Windows NT 6.1; Win64; x64) AppleWebKit/537.36 (KHTML, like Gecko) Chrome/72.0.3626.109 Safari/537.36" etag="gYuN1e6r2irl4rtEcplr" version="13.7.9" type="github">
  <diagram id="AWruUZJml9EUwKn659H2" name="Page-1">
    <mxGraphModel dx="1422" dy="713" grid="1" gridSize="10" guides="1" tooltips="1" connect="1" arrows="1" fold="1" page="1" pageScale="1" pageWidth="827" pageHeight="1169" math="0" shadow="0">
      <root>
        <mxCell id="0" />
        <mxCell id="1" parent="0" />
        <mxCell id="Hq0pacil-GwbFblQXM1T-2" value="" style="rounded=0;whiteSpace=wrap;html=1;fillColor=#d5e8d4;strokeColor=#82b366;" vertex="1" parent="1">
          <mxGeometry x="80" y="20" width="520" height="600" as="geometry" />
        </mxCell>
        <mxCell id="Hq0pacil-GwbFblQXM1T-3" value="" style="rounded=0;whiteSpace=wrap;html=1;fillColor=#f8cecc;strokeColor=#b85450;" vertex="1" parent="1">
          <mxGeometry x="680" y="20" width="120" height="560" as="geometry" />
        </mxCell>
        <mxCell id="Hq0pacil-GwbFblQXM1T-4" value="" style="shape=flexArrow;endArrow=classic;html=1;" edge="1" parent="1">
          <mxGeometry width="50" height="50" relative="1" as="geometry">
            <mxPoint x="600" y="270" as="sourcePoint" />
            <mxPoint x="680" y="270" as="targetPoint" />
          </mxGeometry>
        </mxCell>
        <mxCell id="Hq0pacil-GwbFblQXM1T-5" value="用户登录" style="rounded=1;whiteSpace=wrap;html=1;fillColor=#dae8fc;strokeColor=#6c8ebf;" vertex="1" parent="1">
          <mxGeometry x="690" y="60" width="100" height="60" as="geometry" />
        </mxCell>
        <mxCell id="Hq0pacil-GwbFblQXM1T-6" value="获取企业详情" style="rounded=1;whiteSpace=wrap;html=1;fillColor=#dae8fc;strokeColor=#6c8ebf;" vertex="1" parent="1">
          <mxGeometry x="690" y="140" width="100" height="60" as="geometry" />
        </mxCell>
        <mxCell id="Hq0pacil-GwbFblQXM1T-7" value="&lt;span&gt;切换企业&lt;/span&gt;" style="rounded=1;whiteSpace=wrap;html=1;fillColor=#dae8fc;strokeColor=#6c8ebf;" vertex="1" parent="1">
          <mxGeometry x="690" y="220" width="100" height="60" as="geometry" />
        </mxCell>
        <mxCell id="Hq0pacil-GwbFblQXM1T-8" value="验证用户" style="rounded=1;whiteSpace=wrap;html=1;fillColor=#dae8fc;strokeColor=#6c8ebf;" vertex="1" parent="1">
          <mxGeometry x="690" y="300" width="100" height="60" as="geometry" />
        </mxCell>
        <mxCell id="Hq0pacil-GwbFblQXM1T-9" value="&lt;span&gt;店员注册&lt;/span&gt;" style="rounded=1;whiteSpace=wrap;html=1;fillColor=#dae8fc;strokeColor=#6c8ebf;" vertex="1" parent="1">
          <mxGeometry x="690" y="380" width="100" height="60" as="geometry" />
        </mxCell>
        <mxCell id="Hq0pacil-GwbFblQXM1T-10" value="获取列表" style="rounded=1;whiteSpace=wrap;html=1;fillColor=#dae8fc;strokeColor=#6c8ebf;" vertex="1" parent="1">
          <mxGeometry x="690" y="470" width="100" height="60" as="geometry" />
        </mxCell>
        <mxCell id="Hq0pacil-GwbFblQXM1T-11" value="" style="rounded=0;whiteSpace=wrap;html=1;fillColor=#f5f5f5;strokeColor=#666666;fontColor=#333333;" vertex="1" parent="1">
          <mxGeometry x="106" y="75" width="290" height="230" as="geometry" />
        </mxCell>
        <mxCell id="Hq0pacil-GwbFblQXM1T-13" value="用户中心" style="text;html=1;resizable=0;autosize=1;align=center;verticalAlign=middle;points=[];fillColor=none;strokeColor=none;rounded=0;fontStyle=1" vertex="1" parent="1">
          <mxGeometry x="710" y="30" width="60" height="20" as="geometry" />
        </mxCell>
        <mxCell id="Hq0pacil-GwbFblQXM1T-14" value="" style="rounded=0;whiteSpace=wrap;html=1;fillColor=#f5f5f5;strokeColor=#666666;fontColor=#333333;" vertex="1" parent="1">
          <mxGeometry x="106" y="334" width="290" height="230" as="geometry" />
        </mxCell>
        <mxCell id="Hq0pacil-GwbFblQXM1T-15" value="" style="rounded=0;whiteSpace=wrap;html=1;" vertex="1" parent="1">
          <mxGeometry x="440" y="75" width="140" height="489" as="geometry" />
        </mxCell>
        <mxCell id="Hq0pacil-GwbFblQXM1T-16" value="买家" style="text;html=1;strokeColor=none;fillColor=none;align=center;verticalAlign=middle;whiteSpace=wrap;rounded=0;fontStyle=1" vertex="1" parent="1">
          <mxGeometry x="231" y="80" width="40" height="20" as="geometry" />
        </mxCell>
        <mxCell id="Hq0pacil-GwbFblQXM1T-17" value="卖家" style="text;html=1;strokeColor=none;fillColor=none;align=center;verticalAlign=middle;whiteSpace=wrap;rounded=0;fontStyle=1" vertex="1" parent="1">
          <mxGeometry x="231" y="340" width="40" height="20" as="geometry" />
        </mxCell>
        <mxCell id="Hq0pacil-GwbFblQXM1T-18" value="个人中心" style="rounded=0;whiteSpace=wrap;html=1;fillColor=#fff2cc;strokeColor=#d6b656;" vertex="1" parent="1">
          <mxGeometry x="120" y="114" width="120" height="60" as="geometry" />
        </mxCell>
        <mxCell id="Hq0pacil-GwbFblQXM1T-19" value="订单中心" style="rounded=0;whiteSpace=wrap;html=1;fillColor=#fff2cc;strokeColor=#d6b656;" vertex="1" parent="1">
          <mxGeometry x="260" y="114" width="120" height="60" as="geometry" />
        </mxCell>
        <mxCell id="Hq0pacil-GwbFblQXM1T-20" value="申请开店" style="rounded=0;whiteSpace=wrap;html=1;fillColor=#fff2cc;strokeColor=#d6b656;" vertex="1" parent="1">
          <mxGeometry x="260" y="214" width="120" height="60" as="geometry" />
        </mxCell>
        <mxCell id="Hq0pacil-GwbFblQXM1T-21" value="商品详情" style="rounded=0;whiteSpace=wrap;html=1;fillColor=#fff2cc;strokeColor=#d6b656;" vertex="1" parent="1">
          <mxGeometry x="120" y="213" width="120" height="60" as="geometry" />
        </mxCell>
        <mxCell id="Hq0pacil-GwbFblQXM1T-22" value="会员管理" style="rounded=0;whiteSpace=wrap;html=1;fillColor=#fff2cc;strokeColor=#d6b656;" vertex="1" parent="1">
          <mxGeometry x="120" y="369" width="120" height="60" as="geometry" />
        </mxCell>
        <mxCell id="Hq0pacil-GwbFblQXM1T-23" value="店铺管理" style="rounded=0;whiteSpace=wrap;html=1;fillColor=#fff2cc;strokeColor=#d6b656;" vertex="1" parent="1">
          <mxGeometry x="260" y="369" width="120" height="60" as="geometry" />
        </mxCell>
        <mxCell id="Hq0pacil-GwbFblQXM1T-24" value="超级店员" style="rounded=0;whiteSpace=wrap;html=1;fillColor=#fff2cc;strokeColor=#d6b656;" vertex="1" parent="1">
          <mxGeometry x="120" y="468" width="120" height="60" as="geometry" />
        </mxCell>
        <mxCell id="Hq0pacil-GwbFblQXM1T-25" value="模板列表" style="rounded=0;whiteSpace=wrap;html=1;fillColor=#fff2cc;strokeColor=#d6b656;" vertex="1" parent="1">
          <mxGeometry x="260" y="469" width="120" height="60" as="geometry" />
        </mxCell>
        <mxCell id="Hq0pacil-GwbFblQXM1T-26" value="云店用户中心" style="text;html=1;strokeColor=none;fillColor=none;align=center;verticalAlign=middle;whiteSpace=wrap;rounded=0;fontStyle=1" vertex="1" parent="1">
          <mxGeometry x="460" y="180" width="20" height="214" as="geometry" />
        </mxCell>
        <mxCell id="Hq0pacil-GwbFblQXM1T-28" value="根据id获取列表" style="rounded=0;whiteSpace=wrap;html=1;fillColor=#e1d5e7;strokeColor=#9673a6;" vertex="1" parent="1">
          <mxGeometry x="480" y="104" width="90" height="60" as="geometry" />
        </mxCell>
        <mxCell id="Hq0pacil-GwbFblQXM1T-29" value="切换企业" style="rounded=0;whiteSpace=wrap;html=1;fillColor=#e1d5e7;strokeColor=#9673a6;" vertex="1" parent="1">
          <mxGeometry x="480" y="204" width="90" height="60" as="geometry" />
        </mxCell>
        <mxCell id="Hq0pacil-GwbFblQXM1T-30" value="验证用户注册" style="rounded=0;whiteSpace=wrap;html=1;fillColor=#e1d5e7;strokeColor=#9673a6;" vertex="1" parent="1">
          <mxGeometry x="480" y="260" width="90" height="60" as="geometry" />
        </mxCell>
        <mxCell id="Hq0pacil-GwbFblQXM1T-31" value="店员注册" style="rounded=0;whiteSpace=wrap;html=1;fillColor=#e1d5e7;strokeColor=#9673a6;" vertex="1" parent="1">
          <mxGeometry x="480" y="394" width="90" height="60" as="geometry" />
        </mxCell>
        <mxCell id="Hq0pacil-GwbFblQXM1T-32" value="获取用户列表" style="rounded=0;whiteSpace=wrap;html=1;fillColor=#e1d5e7;strokeColor=#9673a6;" vertex="1" parent="1">
          <mxGeometry x="480" y="484" width="90" height="60" as="geometry" />
        </mxCell>
        <mxCell id="Hq0pacil-GwbFblQXM1T-35" value="云店" style="text;html=1;resizable=0;autosize=1;align=center;verticalAlign=middle;points=[];fillColor=none;strokeColor=none;rounded=0;fontStyle=1" vertex="1" parent="1">
          <mxGeometry x="310" y="30" width="40" height="20" as="geometry" />
        </mxCell>
      </root>
    </mxGraphModel>
  </diagram>
</mxfile>
